G04 DesignSpark PCB Gerber Version 9.0 Build 5115 *
%FSLAX35Y35*%
%MOIN*%
%ADD29C,0.03937*%
%ADD10C,0.06000*%
%ADD18O,0.10400X0.05200*%
%ADD73C,0.15748*%
X0Y0D02*
D02*
D10*
X27022Y28596D03*
Y78596D03*
Y108596D03*
Y138596D03*
X37022Y48596D03*
Y58596D03*
X47022Y48596D03*
Y58596D03*
X67022Y168596D03*
Y258596D03*
X77022Y108596D03*
Y138596D03*
X107022Y168596D03*
Y228596D03*
Y238596D03*
Y258596D03*
X117022Y168596D03*
Y258596D03*
X127022Y108596D03*
Y138596D03*
X157022Y168596D03*
Y228596D03*
Y238596D03*
Y258596D03*
X167022Y168596D03*
Y258596D03*
X177022Y108596D03*
Y138596D03*
Y378596D03*
X187022Y18596D03*
Y378596D03*
X197022Y18596D03*
Y378596D03*
X207022Y18596D03*
Y168596D03*
Y228596D03*
Y238596D03*
Y258596D03*
Y378596D03*
X217022Y18596D03*
Y168596D03*
Y258596D03*
Y378596D03*
X227022Y18596D03*
Y108596D03*
Y138596D03*
Y378596D03*
X237022Y18596D03*
Y378596D03*
X247022Y18596D03*
Y378596D03*
X257022Y18596D03*
Y168596D03*
Y228596D03*
Y238596D03*
Y258596D03*
Y378596D03*
X267022Y18596D03*
Y168596D03*
Y258596D03*
Y378596D03*
X277022Y18596D03*
Y108596D03*
Y138596D03*
X287022Y18596D03*
X307022Y38596D03*
Y48596D03*
Y168596D03*
Y228596D03*
Y238596D03*
Y258596D03*
X317022Y18596D03*
Y168596D03*
Y258596D03*
X327022Y18596D03*
Y108596D03*
Y138596D03*
X337022Y18596D03*
X347022Y38596D03*
Y48596D03*
X357022Y168596D03*
Y228596D03*
Y238596D03*
Y258596D03*
X367022Y168596D03*
Y258596D03*
X377022Y108596D03*
Y138596D03*
X407022Y168596D03*
Y228596D03*
Y238596D03*
Y258596D03*
X417022Y168596D03*
Y258596D03*
X427022Y108596D03*
Y138596D03*
X457022Y168596D03*
Y228596D03*
Y238596D03*
Y258596D03*
X467022Y168596D03*
Y228596D03*
X507022Y118596D03*
Y128596D03*
Y138596D03*
X527022Y78596D03*
Y88596D03*
Y378596D03*
X537022Y18596D03*
Y128596D03*
Y378596D03*
X547022Y18596D03*
Y378596D03*
X567022Y18596D03*
Y88596D03*
Y138596D03*
Y378596D03*
X577022Y18596D03*
Y78596D03*
Y118596D03*
Y378596D03*
D02*
D18*
X27022Y148596D03*
Y158596D03*
Y188596D03*
X47022Y148596D03*
Y158596D03*
Y188596D03*
X77022Y148596D03*
Y158596D03*
Y188596D03*
Y208596D03*
Y218596D03*
Y248596D03*
Y268596D03*
Y278596D03*
Y308596D03*
X97022Y148596D03*
Y158596D03*
Y188596D03*
Y208596D03*
Y218596D03*
Y248596D03*
Y268596D03*
Y278596D03*
Y308596D03*
X127022Y148596D03*
Y158596D03*
Y188596D03*
Y208596D03*
Y218596D03*
Y248596D03*
Y268596D03*
Y278596D03*
Y308596D03*
X147022Y148596D03*
Y158596D03*
Y188596D03*
Y208596D03*
Y218596D03*
Y248596D03*
Y268596D03*
Y278596D03*
Y308596D03*
X177022Y148596D03*
Y158596D03*
Y188596D03*
Y208596D03*
Y218596D03*
Y248596D03*
Y268596D03*
Y278596D03*
Y308596D03*
X197022Y148596D03*
Y158596D03*
Y188596D03*
Y208596D03*
Y218596D03*
Y248596D03*
Y268596D03*
Y278596D03*
Y308596D03*
X227022Y148596D03*
Y158596D03*
Y188596D03*
Y208596D03*
Y218596D03*
Y248596D03*
Y268596D03*
Y278596D03*
Y308596D03*
X247022Y148596D03*
Y158596D03*
Y188596D03*
Y208596D03*
Y218596D03*
Y248596D03*
Y268596D03*
Y278596D03*
Y308596D03*
X277022Y148596D03*
Y158596D03*
Y188596D03*
Y208596D03*
Y218596D03*
Y248596D03*
Y268596D03*
Y278596D03*
Y308596D03*
X297022Y148596D03*
Y158596D03*
Y188596D03*
Y208596D03*
Y218596D03*
Y248596D03*
Y268596D03*
Y278596D03*
Y308596D03*
X327022Y148596D03*
Y158596D03*
Y188596D03*
Y208596D03*
Y218596D03*
Y248596D03*
Y268596D03*
Y278596D03*
Y308596D03*
X347022Y148596D03*
Y158596D03*
Y188596D03*
Y208596D03*
Y218596D03*
Y248596D03*
Y268596D03*
Y278596D03*
Y308596D03*
X377022Y148596D03*
Y158596D03*
Y188596D03*
Y208596D03*
Y218596D03*
Y248596D03*
Y268596D03*
Y278596D03*
Y308596D03*
X397022Y148596D03*
Y158596D03*
Y188596D03*
Y208596D03*
Y218596D03*
Y248596D03*
Y268596D03*
Y278596D03*
Y308596D03*
X427022Y148596D03*
Y158596D03*
Y188596D03*
Y208596D03*
Y218596D03*
Y248596D03*
Y268596D03*
Y278596D03*
Y308596D03*
X447022Y148596D03*
Y158596D03*
Y188596D03*
Y208596D03*
Y218596D03*
Y248596D03*
Y268596D03*
Y278596D03*
Y308596D03*
X477022Y148596D03*
Y178596D03*
Y188596D03*
Y208596D03*
Y218596D03*
Y248596D03*
Y268596D03*
Y278596D03*
Y308596D03*
X497022Y148596D03*
Y178596D03*
Y188596D03*
Y208596D03*
Y218596D03*
Y248596D03*
Y268596D03*
Y278596D03*
Y308596D03*
D02*
D29*
X27022Y108596D02*
X77022D01*
X27022Y148596D02*
Y138596D01*
Y158596D02*
X37022D01*
Y378596*
X177022*
X37022Y48596D02*
Y38596D01*
X307022*
X47022Y188596D02*
Y198596D01*
X77022*
Y208596*
X67022Y168596D02*
Y158596D01*
X77022*
X67022Y258596D02*
Y278596D01*
X77022*
Y108596D02*
X127022D01*
X77022Y148596D02*
Y138596D01*
Y218596D02*
Y208596D01*
Y268596D02*
X87022D01*
Y218596*
X77022*
Y278596D02*
X87022D01*
Y368596*
X187022*
Y378596*
X97022Y158596D02*
Y178596D01*
X47022*
Y158596*
X97022Y188596D02*
Y198596D01*
X127022*
Y208596*
X97022Y248596D02*
X127022D01*
X97022Y278596D02*
X107022D01*
Y258596*
Y168596D02*
Y178596D01*
X97022*
X107022Y228596D02*
Y238596D01*
Y228596D02*
Y218596D01*
X97022*
X117022Y168596D02*
Y158596D01*
X127022*
X117022Y258596D02*
Y278596D01*
X127022*
Y108596D02*
X177022D01*
X127022Y148596D02*
Y138596D01*
Y218596D02*
Y208596D01*
Y268596D02*
X137022D01*
Y218596*
X127022*
Y278596D02*
X137022D01*
Y358596*
X197022*
Y378596*
X127022Y308596D02*
X97022D01*
X147022Y158596D02*
Y178596D01*
X107022*
X147022Y188596D02*
Y198596D01*
X177022*
Y208596*
X147022Y248596D02*
X177022D01*
X147022Y278596D02*
X157022D01*
Y258596*
Y178596D02*
Y168596D01*
Y178596D02*
X147022D01*
X157022Y228596D02*
Y218596D01*
X147022*
X157022Y238596D02*
Y228596D01*
X167022Y168596D02*
Y158596D01*
X177022*
X167022Y258596D02*
Y278596D01*
X177022*
Y148596D02*
Y138596D01*
Y218596D02*
Y208596D01*
Y268596D02*
X187022D01*
Y218596*
X177022*
Y278596D02*
X187022D01*
Y348596*
X207022*
Y378596*
X177022Y308596D02*
X147022D01*
X197022Y158596D02*
Y178596D01*
X157022*
X197022Y188596D02*
Y198596D01*
X227022*
Y208596*
X197022Y248596D02*
X227022D01*
X197022Y278596D02*
X207022D01*
Y258596*
Y168596D02*
Y178596D01*
X197022*
X207022Y228596D02*
Y238596D01*
Y228596D02*
Y218596D01*
X197022*
X217022Y168596D02*
Y158596D01*
X227022*
X217022Y258596D02*
Y278596D01*
X227022*
Y108596D02*
X177022D01*
X227022D02*
X277022D01*
X227022Y148596D02*
Y138596D01*
Y218596D02*
Y208596D01*
Y268596D02*
X237022D01*
Y218596*
X227022*
Y278596D02*
X237022D01*
Y328596*
X217022*
Y378596*
X227022Y308596D02*
X197022D01*
X247022Y158596D02*
Y178596D01*
X207022*
X247022Y188596D02*
Y198596D01*
X277022*
Y208596*
X247022Y248596D02*
X277022D01*
X247022Y278596D02*
X257022D01*
Y258596*
Y178596D02*
Y168596D01*
Y178596D02*
X247022D01*
X257022Y228596D02*
Y218596D01*
X247022*
X257022Y238596D02*
Y228596D01*
X267022Y168596D02*
Y158596D01*
X277022*
X267022Y258596D02*
Y278596D01*
X277022*
X267022Y378596D02*
X487022D01*
Y278596*
X477022*
X277022Y108596D02*
X317022D01*
X277022Y148596D02*
Y138596D01*
Y218596D02*
Y208596D01*
Y268596D02*
X287022D01*
Y218596*
X277022*
Y278596D02*
X287022D01*
Y338596*
X227022*
Y378596*
X277022Y308596D02*
X247022D01*
X297022Y158596D02*
Y178596D01*
X257022*
X297022Y188596D02*
Y198596D01*
X327022*
Y208596*
X297022Y248596D02*
X327022D01*
X297022Y278596D02*
X307022D01*
Y258596*
Y48596D02*
X47022D01*
X307022Y178596D02*
Y168596D01*
Y178596D02*
X297022D01*
X307022Y228596D02*
Y238596D01*
Y228596D02*
Y218596D01*
X297022*
X317022Y18596D02*
Y108596D01*
X327022*
X317022Y168596D02*
Y158596D01*
X327022*
X317022Y258596D02*
Y278596D01*
X327022*
Y108596D02*
X377022D01*
X327022Y148596D02*
Y138596D01*
Y218596D02*
Y208596D01*
Y268596D02*
X337022D01*
Y218596*
X327022*
Y278596D02*
X337022D01*
Y348596*
X237022*
Y378596*
X327022Y308596D02*
X297022D01*
X347022Y38596D02*
X357022D01*
Y78596*
X527022*
X347022Y48596D02*
Y88596D01*
X527022*
X347022Y158596D02*
Y178596D01*
X307022*
X347022Y188596D02*
Y198596D01*
X377022*
Y208596*
X347022Y248596D02*
X377022D01*
X347022Y278596D02*
X357022D01*
Y258596*
Y178596D02*
Y168596D01*
Y178596D02*
X347022D01*
X357022Y228596D02*
Y218596D01*
X347022*
X357022Y238596D02*
Y228596D01*
X367022Y168596D02*
Y158596D01*
X377022*
X367022Y258596D02*
Y278596D01*
X377022*
Y148596D02*
Y138596D01*
Y218596D02*
Y208596D01*
Y268596D02*
X387022D01*
Y218596*
X377022*
Y278596D02*
X387022D01*
Y358596*
X247022*
Y378596*
X377022Y308596D02*
X347022D01*
X397022Y158596D02*
Y178596D01*
X357022*
X397022Y188596D02*
Y198596D01*
X427022*
Y208596*
X397022Y248596D02*
X427022D01*
X397022Y278596D02*
X407022D01*
Y258596*
X397022Y308596D02*
X427022D01*
X407022Y178596D02*
Y168596D01*
Y178596D02*
X397022D01*
X407022Y228596D02*
Y218596D01*
X397022*
X407022Y238596D02*
Y228596D01*
X417022Y168596D02*
Y158596D01*
X427022*
X417022Y258596D02*
Y278596D01*
X427022*
Y108596D02*
X377022D01*
X427022Y148596D02*
Y138596D01*
Y218596D02*
Y208596D01*
Y268596D02*
X437022D01*
Y218596*
X427022*
Y278596D02*
X437022D01*
Y368596*
X257022*
Y378596*
X447022Y158596D02*
Y178596D01*
X407022*
X447022Y188596D02*
Y198596D01*
X477022*
Y208596*
X447022Y248596D02*
X467022D01*
X447022Y278596D02*
X457022D01*
Y258596*
X447022Y308596D02*
X477022D01*
X457022Y158596D02*
Y168596D01*
Y158596D02*
X447022D01*
X457022Y228596D02*
Y218596D01*
X447022*
X457022Y238596D02*
Y228596D01*
X467022Y158596D02*
Y118596D01*
X507022*
X467022Y158596D02*
X457022D01*
X467022Y228596D02*
Y248596D01*
X477022*
Y178596D02*
Y158596D01*
X467022*
X477022Y188596D02*
X467022D01*
Y168596*
X477022Y218596D02*
Y208596D01*
Y268596D02*
X487022D01*
Y218596*
X477022*
X497022Y148596D02*
Y138596D01*
X507022*
X497022Y178596D02*
X487022D01*
Y128596*
X507022*
X497022Y278596D02*
X507022D01*
Y218596*
X497022*
Y308596D02*
X517022D01*
Y98596*
X337022*
Y18596*
X537022D02*
Y128596D01*
X567022Y88596D02*
Y18596D01*
Y138596D02*
Y88596D01*
Y378596D02*
Y138596D01*
X577022Y18596D02*
Y78596D01*
Y118596D02*
Y78596D01*
Y118596D02*
Y378596D01*
D02*
D73*
X486864Y38439D03*
X0Y0D02*
M02*
