G05
M48
INCH,TZ
FMAT,2
T1C000.03200
T2C000.03500
%
T001
X0.27022Y1.08596
X0.27022Y1.38596
X0.27022Y1.48596
X0.27022Y1.58596
X0.27022Y1.88596
X0.47022Y1.48596
X0.47022Y1.58596
X0.47022Y1.88596
X0.77022Y1.08596
X0.77022Y1.38596
X0.77022Y1.48596
X0.77022Y1.58596
X0.77022Y1.88596
X0.77022Y2.08596
X0.77022Y2.18596
X0.77022Y2.48596
X0.77022Y2.68596
X0.77022Y2.78596
X0.77022Y3.08596
X0.97022Y1.48596
X0.97022Y1.58596
X0.97022Y1.88596
X0.97022Y2.08596
X0.97022Y2.18596
X0.97022Y2.48596
X0.97022Y2.68596
X0.97022Y2.78596
X0.97022Y3.08596
X1.27022Y1.08596
X1.27022Y1.38596
X1.27022Y1.48596
X1.27022Y1.58596
X1.27022Y1.88596
X1.27022Y2.08596
X1.27022Y2.18596
X1.27022Y2.48596
X1.27022Y2.68596
X1.27022Y2.78596
X1.27022Y3.08596
X1.47022Y1.48596
X1.47022Y1.58596
X1.47022Y1.88596
X1.47022Y2.08596
X1.47022Y2.18596
X1.47022Y2.48596
X1.47022Y2.68596
X1.47022Y2.78596
X1.47022Y3.08596
X1.77022Y1.08596
X1.77022Y1.38596
X1.77022Y1.48596
X1.77022Y1.58596
X1.77022Y1.88596
X1.77022Y2.08596
X1.77022Y2.18596
X1.77022Y2.48596
X1.77022Y2.68596
X1.77022Y2.78596
X1.77022Y3.08596
X1.97022Y1.48596
X1.97022Y1.58596
X1.97022Y1.88596
X1.97022Y2.08596
X1.97022Y2.18596
X1.97022Y2.48596
X1.97022Y2.68596
X1.97022Y2.78596
X1.97022Y3.08596
X2.27022Y1.08596
X2.27022Y1.38596
X2.27022Y1.48596
X2.27022Y1.58596
X2.27022Y1.88596
X2.27022Y2.08596
X2.27022Y2.18596
X2.27022Y2.48596
X2.27022Y2.68596
X2.27022Y2.78596
X2.27022Y3.08596
X2.47022Y1.48596
X2.47022Y1.58596
X2.47022Y1.88596
X2.47022Y2.08596
X2.47022Y2.18596
X2.47022Y2.48596
X2.47022Y2.68596
X2.47022Y2.78596
X2.47022Y3.08596
X2.77022Y1.08596
X2.77022Y1.38596
X2.77022Y1.48596
X2.77022Y1.58596
X2.77022Y1.88596
X2.77022Y2.08596
X2.77022Y2.18596
X2.77022Y2.48596
X2.77022Y2.68596
X2.77022Y2.78596
X2.77022Y3.08596
X2.97022Y1.48596
X2.97022Y1.58596
X2.97022Y1.88596
X2.97022Y2.08596
X2.97022Y2.18596
X2.97022Y2.48596
X2.97022Y2.68596
X2.97022Y2.78596
X2.97022Y3.08596
X3.27022Y1.08596
X3.27022Y1.38596
X3.27022Y1.48596
X3.27022Y1.58596
X3.27022Y1.88596
X3.27022Y2.08596
X3.27022Y2.18596
X3.27022Y2.48596
X3.27022Y2.68596
X3.27022Y2.78596
X3.27022Y3.08596
X3.47022Y1.48596
X3.47022Y1.58596
X3.47022Y1.88596
X3.47022Y2.08596
X3.47022Y2.18596
X3.47022Y2.48596
X3.47022Y2.68596
X3.47022Y2.78596
X3.47022Y3.08596
X3.77022Y1.08596
X3.77022Y1.38596
X3.77022Y1.48596
X3.77022Y1.58596
X3.77022Y1.88596
X3.77022Y2.08596
X3.77022Y2.18596
X3.77022Y2.48596
X3.77022Y2.68596
X3.77022Y2.78596
X3.77022Y3.08596
X3.97022Y1.48596
X3.97022Y1.58596
X3.97022Y1.88596
X3.97022Y2.08596
X3.97022Y2.18596
X3.97022Y2.48596
X3.97022Y2.68596
X3.97022Y2.78596
X3.97022Y3.08596
X4.27022Y1.08596
X4.27022Y1.38596
X4.27022Y1.48596
X4.27022Y1.58596
X4.27022Y1.88596
X4.27022Y2.08596
X4.27022Y2.18596
X4.27022Y2.48596
X4.27022Y2.68596
X4.27022Y2.78596
X4.27022Y3.08596
X4.47022Y1.48596
X4.47022Y1.58596
X4.47022Y1.88596
X4.47022Y2.08596
X4.47022Y2.18596
X4.47022Y2.48596
X4.47022Y2.68596
X4.47022Y2.78596
X4.47022Y3.08596
X4.77022Y1.48596
X4.77022Y1.78596
X4.77022Y1.88596
X4.77022Y2.08596
X4.77022Y2.18596
X4.77022Y2.48596
X4.77022Y2.68596
X4.77022Y2.78596
X4.77022Y3.08596
X4.97022Y1.48596
X4.97022Y1.78596
X4.97022Y1.88596
X4.97022Y2.08596
X4.97022Y2.18596
X4.97022Y2.48596
X4.97022Y2.68596
X4.97022Y2.78596
X4.97022Y3.08596
T002
X0.27022Y0.28596
X0.27022Y0.78596
X0.37022Y0.48596
X0.37022Y0.58596
X0.47022Y0.48596
X0.47022Y0.58596
X0.67022Y1.68596
X0.67022Y2.58596
X1.07022Y1.68596
X1.07022Y2.28596
X1.07022Y2.38596
X1.07022Y2.58596
X1.17022Y1.68596
X1.17022Y2.58596
X1.57022Y1.68596
X1.57022Y2.28596
X1.57022Y2.38596
X1.57022Y2.58596
X1.67022Y1.68596
X1.67022Y2.58596
X1.77022Y3.78596
X1.87022Y0.18596
X1.87022Y3.78596
X1.97022Y0.18596
X1.97022Y3.78596
X2.07022Y0.18596
X2.07022Y1.68596
X2.07022Y2.28596
X2.07022Y2.38596
X2.07022Y2.58596
X2.07022Y3.78596
X2.17022Y0.18596
X2.17022Y1.68596
X2.17022Y2.58596
X2.17022Y3.78596
X2.27022Y0.18596
X2.27022Y3.78596
X2.37022Y0.18596
X2.37022Y3.78596
X2.47022Y0.18596
X2.47022Y3.78596
X2.57022Y0.18596
X2.57022Y1.68596
X2.57022Y2.28596
X2.57022Y2.38596
X2.57022Y2.58596
X2.57022Y3.78596
X2.67022Y0.18596
X2.67022Y1.68596
X2.67022Y2.58596
X2.67022Y3.78596
X2.77022Y0.18596
X2.87022Y0.18596
X3.07022Y0.38596
X3.07022Y0.48596
X3.07022Y1.68596
X3.07022Y2.28596
X3.07022Y2.38596
X3.07022Y2.58596
X3.17022Y0.18596
X3.17022Y1.68596
X3.17022Y2.58596
X3.27022Y0.18596
X3.37022Y0.18596
X3.47022Y0.38596
X3.47022Y0.48596
X3.57022Y1.68596
X3.57022Y2.28596
X3.57022Y2.38596
X3.57022Y2.58596
X3.67022Y1.68596
X3.67022Y2.58596
X4.07022Y1.68596
X4.07022Y2.28596
X4.07022Y2.38596
X4.07022Y2.58596
X4.17022Y1.68596
X4.17022Y2.58596
X4.57022Y1.68596
X4.57022Y2.28596
X4.57022Y2.38596
X4.57022Y2.58596
X4.67022Y1.68596
X4.67022Y2.28596
X4.86864Y0.38439
X5.07022Y1.18596
X5.07022Y1.28596
X5.07022Y1.38596
X5.27022Y0.78596
X5.27022Y0.88596
X5.27022Y3.78596
X5.37022Y0.18596
X5.37022Y1.28596
X5.37022Y3.78596
X5.47022Y0.18596
X5.47022Y3.78596
X5.67022Y0.18596
X5.67022Y0.88596
X5.67022Y1.38596
X5.67022Y3.78596
X5.77022Y0.18596
X5.77022Y0.78596
X5.77022Y1.18596
X5.77022Y3.78596
M30
