G04 DesignSpark PCB Gerber Version 9.0 Build 5115 *
%FSLAX35Y35*%
%MOIN*%
%ADD29C,0.03937*%
%ADD10C,0.06000*%
%ADD18O,0.10400X0.05200*%
%ADD73C,0.15748*%
X0Y0D02*
D02*
D10*
X27022Y28596D03*
X107022Y298596D03*
X117022Y98596D03*
Y118596D03*
Y268596D03*
Y318596D03*
X127022Y98596D03*
Y308596D03*
X137022Y108596D03*
X147022D03*
Y318596D03*
X157022Y88596D03*
Y118596D03*
Y148596D03*
Y178596D03*
Y238596D03*
Y298596D03*
Y308596D03*
X167022Y98596D03*
Y118596D03*
Y268596D03*
Y318596D03*
X177022Y38596D03*
Y98596D03*
Y308596D03*
Y378596D03*
X187022Y18596D03*
Y108596D03*
Y378596D03*
X197022Y18596D03*
Y88596D03*
Y108596D03*
Y298596D03*
Y318596D03*
Y378596D03*
X207022Y18596D03*
Y88596D03*
Y118596D03*
Y148596D03*
Y178596D03*
Y238596D03*
Y298596D03*
Y308596D03*
Y378596D03*
X217022Y18596D03*
Y98596D03*
Y118596D03*
Y268596D03*
Y318596D03*
Y378596D03*
X227022Y18596D03*
Y98596D03*
Y308596D03*
Y378596D03*
X237022Y18596D03*
Y108596D03*
Y378596D03*
X247022Y18596D03*
Y38596D03*
Y88596D03*
Y108596D03*
Y298596D03*
Y318596D03*
Y378596D03*
X257022Y18596D03*
Y88596D03*
Y118596D03*
Y148596D03*
Y178596D03*
Y238596D03*
Y298596D03*
Y308596D03*
Y378596D03*
X267022Y18596D03*
Y98596D03*
Y118596D03*
Y268596D03*
Y318596D03*
Y378596D03*
X277022Y18596D03*
Y98596D03*
Y308596D03*
X287022Y18596D03*
Y108596D03*
X297022Y88596D03*
Y108596D03*
Y298596D03*
Y318596D03*
X307022Y88596D03*
Y118596D03*
Y148596D03*
Y178596D03*
Y238596D03*
Y298596D03*
Y308596D03*
X317022Y18596D03*
Y98596D03*
Y118596D03*
Y268596D03*
Y318596D03*
X327022Y18596D03*
Y28596D03*
Y98596D03*
Y308596D03*
X337022Y18596D03*
Y108596D03*
X347022Y28596D03*
Y88596D03*
Y108596D03*
Y298596D03*
Y318596D03*
X357022Y88596D03*
Y118596D03*
Y148596D03*
Y178596D03*
Y238596D03*
Y298596D03*
Y308596D03*
X367022Y98596D03*
Y118596D03*
Y268596D03*
Y318596D03*
X377022Y98596D03*
Y308596D03*
X387022Y108596D03*
X397022Y88596D03*
Y108596D03*
Y298596D03*
Y318596D03*
X407022Y88596D03*
Y118596D03*
Y148596D03*
Y178596D03*
Y238596D03*
Y308596D03*
X437022Y88596D03*
Y108596D03*
X527022Y378596D03*
X537022Y18596D03*
Y378596D03*
X547022Y18596D03*
Y378596D03*
X557022Y88596D03*
X567022Y18596D03*
Y378596D03*
X577022Y18596D03*
Y88596D03*
Y378596D03*
D02*
D18*
X127022Y128596D03*
Y138596D03*
Y168596D03*
Y188596D03*
Y198596D03*
Y228596D03*
Y248596D03*
Y258596D03*
Y288596D03*
X147022Y128596D03*
Y138596D03*
Y168596D03*
Y188596D03*
Y198596D03*
Y228596D03*
Y248596D03*
Y258596D03*
Y288596D03*
X177022Y128596D03*
Y138596D03*
Y168596D03*
Y188596D03*
Y198596D03*
Y228596D03*
Y248596D03*
Y258596D03*
Y288596D03*
X197022Y128596D03*
Y138596D03*
Y168596D03*
Y188596D03*
Y198596D03*
Y228596D03*
Y248596D03*
Y258596D03*
Y288596D03*
X227022Y128596D03*
Y138596D03*
Y168596D03*
Y188596D03*
Y198596D03*
Y228596D03*
Y248596D03*
Y258596D03*
Y288596D03*
X247022Y128596D03*
Y138596D03*
Y168596D03*
Y188596D03*
Y198596D03*
Y228596D03*
Y248596D03*
Y258596D03*
Y288596D03*
X277022Y128596D03*
Y138596D03*
Y168596D03*
Y188596D03*
Y198596D03*
Y228596D03*
Y248596D03*
Y258596D03*
Y288596D03*
X297022Y128596D03*
Y138596D03*
Y168596D03*
Y188596D03*
Y198596D03*
Y228596D03*
Y248596D03*
Y258596D03*
Y288596D03*
X327022Y128596D03*
Y138596D03*
Y168596D03*
Y188596D03*
Y198596D03*
Y228596D03*
Y248596D03*
Y258596D03*
Y288596D03*
X347022Y128596D03*
Y138596D03*
Y168596D03*
Y188596D03*
Y198596D03*
Y228596D03*
Y248596D03*
Y258596D03*
Y288596D03*
X377022Y128596D03*
Y138596D03*
Y168596D03*
Y188596D03*
Y198596D03*
Y228596D03*
Y248596D03*
Y258596D03*
Y288596D03*
X397022Y128596D03*
Y138596D03*
Y168596D03*
Y188596D03*
Y198596D03*
Y228596D03*
Y248596D03*
Y258596D03*
Y288596D03*
D02*
D29*
X117022Y118596D02*
Y98596D01*
Y248596D02*
X127022D01*
X117022Y268596D02*
Y248596D01*
X127022Y98596D02*
X157022D01*
X127022Y188596D02*
Y198596D01*
Y218596*
X117022*
Y248596*
X127022Y258596D02*
Y278596D01*
X117022*
Y318596*
X127022Y258596D02*
X137022D01*
Y158596*
X127022*
Y138596*
X137022Y108596D02*
X147022D01*
Y128596D02*
X167022D01*
Y208596*
X157022*
Y228596*
X147022*
Y168596D02*
Y148596D01*
X137022*
Y108596*
X147022Y198596D02*
X157022D01*
X147022Y288596D02*
X137022D01*
Y308596*
X127022*
X147022Y318596D02*
Y328596D01*
X177022*
X157022Y98596D02*
Y88596D01*
Y98596D02*
Y118596D01*
Y148596D02*
Y138596D01*
X147022*
X157022Y198596D02*
Y148596D01*
Y198596D02*
Y178596D01*
Y238596D02*
Y258596D01*
X147022*
X157022Y308596D02*
Y298596D01*
X167022Y98596D02*
Y68596D01*
X197022*
Y18596*
X167022Y118596D02*
Y98596D01*
Y248596D02*
X177022D01*
X167022Y268596D02*
Y248596D01*
X177022Y38596D02*
X107022D01*
Y298596*
X177022Y98596D02*
X207022D01*
X177022Y188596D02*
Y198596D01*
Y218596*
X167022*
Y248596*
X177022Y258596D02*
Y278596D01*
X167022*
Y318596*
X177022Y258596D02*
X187022D01*
Y158596*
X177022*
Y138596*
Y328596D02*
Y378596D01*
X187022Y18596D02*
Y58596D01*
X117022*
Y98596*
X187022Y108596D02*
X197022D01*
X187022Y378596D02*
Y338596D01*
X247022*
Y318596*
X197022Y88596D02*
X207022D01*
X197022Y128596D02*
X217022D01*
Y208596*
X207022*
Y228596*
X197022*
Y168596D02*
Y148596D01*
X187022*
Y108596*
X197022Y198596D02*
X207022D01*
X197022Y288596D02*
X187022D01*
Y308596*
X177022*
X197022Y298596D02*
X207022D01*
X197022Y318596D02*
Y328596D01*
X177022*
X197022Y378596D02*
Y348596D01*
X297022*
Y318596*
X207022Y98596D02*
Y88596D01*
Y98596D02*
Y118596D01*
Y148596D02*
Y138596D01*
X197022*
X207022Y198596D02*
Y148596D01*
Y198596D02*
Y178596D01*
Y238596D02*
Y258596D01*
X197022*
X207022Y298596D02*
Y308596D01*
Y378596D02*
Y358596D01*
X347022*
Y318596*
X217022Y18596D02*
Y68596D01*
X267022*
Y98596*
X217022D02*
Y78596D01*
X207022*
Y18596*
X217022Y118596D02*
Y98596D01*
Y248596D02*
X227022D01*
X217022Y268596D02*
Y248596D01*
Y378596D02*
Y368596D01*
X397022*
Y318596*
X227022Y18596D02*
Y58596D01*
X317022*
Y98596*
X227022D02*
X257022D01*
X227022Y188596D02*
Y198596D01*
Y218596*
X217022*
Y248596*
X227022Y258596D02*
Y278596D01*
X217022*
Y318596*
X227022Y258596D02*
X237022D01*
Y158596*
X227022*
Y138596*
X237022Y18596D02*
Y48596D01*
X367022*
Y98596*
X237022Y108596D02*
X247022D01*
Y38596D02*
X337022D01*
Y18596*
X247022Y88596D02*
X257022D01*
X247022Y128596D02*
X267022D01*
Y208596*
X257022*
Y228596*
X247022*
Y168596D02*
Y148596D01*
X237022*
Y108596*
X247022Y198596D02*
X257022D01*
X247022Y288596D02*
X237022D01*
Y308596*
X227022*
X247022Y298596D02*
X257022D01*
Y98596D02*
Y88596D01*
Y98596D02*
Y118596D01*
Y148596D02*
Y138596D01*
X247022*
X257022Y198596D02*
Y148596D01*
Y198596D02*
Y178596D01*
Y238596D02*
Y258596D01*
X247022*
X257022Y298596D02*
Y308596D01*
X267022Y118596D02*
Y98596D01*
Y248596D02*
X277022D01*
X267022Y268596D02*
Y248596D01*
X277022Y98596D02*
X307022D01*
X277022Y188596D02*
Y198596D01*
Y218596*
X267022*
Y248596*
X277022Y258596D02*
Y278596D01*
X267022*
Y318596*
X277022Y258596D02*
X287022D01*
Y158596*
X277022*
Y138596*
X287022Y108596D02*
X297022D01*
Y88596D02*
X307022D01*
X297022Y128596D02*
X317022D01*
Y208596*
X307022*
Y228596*
X297022*
Y168596D02*
Y148596D01*
X287022*
Y108596*
X297022Y198596D02*
X307022D01*
X297022Y288596D02*
X287022D01*
Y308596*
X277022*
X297022Y298596D02*
X307022D01*
Y98596D02*
Y88596D01*
Y98596D02*
Y118596D01*
Y148596D02*
Y138596D01*
X297022*
X307022Y198596D02*
Y148596D01*
Y198596D02*
Y178596D01*
Y238596D02*
Y258596D01*
X297022*
X307022Y298596D02*
Y308596D01*
X317022Y118596D02*
Y98596D01*
Y248596D02*
X327022D01*
X317022Y268596D02*
Y248596D01*
X327022Y18596D02*
Y28596D01*
Y98596D02*
X357022D01*
X327022Y188596D02*
Y198596D01*
Y218596*
X317022*
Y248596*
X327022Y258596D02*
Y278596D01*
X317022*
Y318596*
X327022Y258596D02*
X337022D01*
Y158596*
X327022*
Y138596*
X337022Y108596D02*
X347022D01*
Y28596D02*
X427022D01*
Y308596*
X407022*
X347022Y88596D02*
X357022D01*
X347022Y128596D02*
X367022D01*
Y208596*
X357022*
Y228596*
X347022*
Y168596D02*
Y148596D01*
X337022*
Y108596*
X347022Y198596D02*
X357022D01*
X347022Y288596D02*
X337022D01*
Y308596*
X327022*
X347022Y298596D02*
X357022D01*
Y98596D02*
Y88596D01*
Y98596D02*
Y118596D01*
Y148596D02*
Y138596D01*
X347022*
X357022Y198596D02*
Y148596D01*
Y198596D02*
Y178596D01*
Y238596D02*
Y258596D01*
X347022*
X357022Y298596D02*
Y308596D01*
X367022Y118596D02*
Y98596D01*
Y248596D02*
X377022D01*
X367022Y268596D02*
Y248596D01*
X377022Y98596D02*
X407022D01*
X377022Y188596D02*
Y198596D01*
Y218596*
X367022*
Y248596*
X377022Y258596D02*
Y278596D01*
X367022*
Y318596*
X377022Y258596D02*
X387022D01*
Y158596*
X377022*
Y138596*
X387022Y108596D02*
X397022D01*
Y88596D02*
X407022D01*
X397022Y168596D02*
Y148596D01*
X387022*
Y108596*
X397022Y198596D02*
X407022D01*
X397022Y228596D02*
X407022D01*
Y208596*
X417022*
Y128596*
X397022*
Y288596D02*
X387022D01*
Y308596*
X377022*
X407022Y98596D02*
Y88596D01*
Y98596D02*
Y118596D01*
Y148596D02*
Y138596D01*
X397022*
X407022Y198596D02*
Y148596D01*
Y198596D02*
Y178596D01*
Y238596D02*
Y258596D01*
X397022*
X407022Y308596D02*
Y298596D01*
X397022*
X437022Y108596D02*
X567022D01*
X557022Y88596D02*
X437022D01*
X567022Y108596D02*
Y18596D01*
Y378596D02*
Y108596D01*
X577022Y18596D02*
Y88596D01*
Y378596*
D02*
D73*
X487022Y38596D03*
X0Y0D02*
M02*
