G04 DesignSpark PCB Gerber Version 9.0 Build 5115 *
%FSLAX35Y35*%
%MOIN*%
%ADD70R,0.06000X0.08000*%
%ADD29C,0.03937*%
%ADD10C,0.06000*%
%ADD19R,0.08000X0.06000*%
%ADD73C,0.15748*%
X0Y0D02*
D02*
D10*
X27022Y158596D03*
Y178596D03*
Y238596D03*
Y328596D03*
X37022Y178596D03*
Y188596D03*
Y198596D03*
Y258596D03*
Y268596D03*
Y278596D03*
Y288596D03*
X47022Y128596D03*
Y158596D03*
Y228596D03*
Y318596D03*
X57022Y78596D03*
Y118596D03*
Y178596D03*
Y218596D03*
Y228596D03*
Y238596D03*
Y258596D03*
Y268596D03*
Y308596D03*
Y318596D03*
Y328596D03*
X67022Y128596D03*
Y158596D03*
X77022D03*
Y178596D03*
Y238596D03*
Y328596D03*
Y378596D03*
X87022Y178596D03*
Y188596D03*
Y198596D03*
Y258596D03*
Y268596D03*
Y278596D03*
Y288596D03*
X97022Y78596D03*
Y118596D03*
Y228596D03*
Y318596D03*
X107022Y178596D03*
Y218596D03*
Y228596D03*
Y238596D03*
Y258596D03*
Y268596D03*
Y308596D03*
Y318596D03*
Y328596D03*
Y368596D03*
Y378596D03*
X117022Y128596D03*
Y158596D03*
X127022D03*
Y178596D03*
Y238596D03*
Y328596D03*
X137022Y78596D03*
Y118596D03*
Y178596D03*
Y188596D03*
Y198596D03*
Y258596D03*
Y268596D03*
Y278596D03*
Y288596D03*
Y358596D03*
Y368596D03*
X147022Y228596D03*
Y318596D03*
X157022Y178596D03*
Y218596D03*
Y228596D03*
Y238596D03*
Y258596D03*
Y268596D03*
Y308596D03*
Y318596D03*
Y328596D03*
X167022Y128596D03*
Y158596D03*
Y348596D03*
Y358596D03*
X177022Y78596D03*
Y118596D03*
Y158596D03*
Y178596D03*
Y238596D03*
Y328596D03*
Y378596D03*
X187022Y18596D03*
Y178596D03*
Y188596D03*
Y198596D03*
Y258596D03*
Y268596D03*
Y278596D03*
Y288596D03*
Y378596D03*
X197022Y18596D03*
Y228596D03*
Y318596D03*
Y348596D03*
Y378596D03*
X207022Y18596D03*
Y178596D03*
Y218596D03*
Y228596D03*
Y238596D03*
Y258596D03*
Y268596D03*
Y308596D03*
Y318596D03*
Y328596D03*
Y378596D03*
X217022Y18596D03*
Y78596D03*
Y118596D03*
Y128596D03*
Y158596D03*
Y338596D03*
Y368596D03*
Y378596D03*
X227022Y18596D03*
Y158596D03*
Y178596D03*
Y238596D03*
Y328596D03*
Y338596D03*
Y368596D03*
Y378596D03*
X237022Y18596D03*
Y178596D03*
Y188596D03*
Y198596D03*
Y258596D03*
Y268596D03*
Y278596D03*
Y288596D03*
Y378596D03*
X247022Y18596D03*
Y228596D03*
Y318596D03*
Y378596D03*
X257022Y18596D03*
Y78596D03*
Y118596D03*
Y178596D03*
Y218596D03*
Y228596D03*
Y238596D03*
Y258596D03*
Y268596D03*
Y308596D03*
Y318596D03*
Y328596D03*
Y348596D03*
Y378596D03*
X267022Y18596D03*
Y128596D03*
Y158596D03*
Y378596D03*
X277022Y18596D03*
Y158596D03*
Y178596D03*
Y238596D03*
Y328596D03*
X287022Y18596D03*
Y178596D03*
Y188596D03*
Y198596D03*
Y258596D03*
Y268596D03*
Y278596D03*
Y288596D03*
Y348596D03*
Y358596D03*
X297022Y78596D03*
Y118596D03*
Y228596D03*
Y318596D03*
X307022Y178596D03*
Y218596D03*
Y228596D03*
Y238596D03*
Y258596D03*
Y268596D03*
Y308596D03*
Y318596D03*
Y328596D03*
X317022Y18596D03*
Y128596D03*
Y158596D03*
Y358596D03*
Y368596D03*
X327022Y18596D03*
Y158596D03*
Y178596D03*
Y238596D03*
Y328596D03*
X337022Y18596D03*
Y78596D03*
Y118596D03*
Y178596D03*
Y188596D03*
Y198596D03*
Y258596D03*
Y268596D03*
Y278596D03*
Y288596D03*
X347022Y228596D03*
Y318596D03*
Y368596D03*
Y378596D03*
X357022Y178596D03*
Y218596D03*
Y228596D03*
Y238596D03*
Y258596D03*
Y268596D03*
Y308596D03*
Y318596D03*
Y328596D03*
X367022Y128596D03*
Y158596D03*
X377022Y78596D03*
Y118596D03*
Y158596D03*
Y178596D03*
Y238596D03*
Y328596D03*
Y378596D03*
X387022Y178596D03*
Y188596D03*
Y198596D03*
Y258596D03*
Y268596D03*
Y278596D03*
Y288596D03*
X397022Y228596D03*
Y318596D03*
X407022Y178596D03*
Y218596D03*
Y228596D03*
Y238596D03*
Y258596D03*
Y268596D03*
Y308596D03*
Y318596D03*
Y328596D03*
X417022Y78596D03*
Y118596D03*
Y128596D03*
Y158596D03*
X427022D03*
Y178596D03*
Y238596D03*
Y328596D03*
X437022Y158596D03*
Y178596D03*
Y188596D03*
Y198596D03*
Y258596D03*
Y268596D03*
Y278596D03*
Y288596D03*
X447022Y228596D03*
Y318596D03*
X457022Y78596D03*
Y118596D03*
Y178596D03*
Y218596D03*
Y228596D03*
Y238596D03*
Y258596D03*
Y268596D03*
Y308596D03*
Y318596D03*
Y328596D03*
X467022Y108596D03*
Y128596D03*
Y158596D03*
X477022Y138596D03*
Y158596D03*
Y178596D03*
Y238596D03*
Y328596D03*
X487022Y138596D03*
Y178596D03*
Y188596D03*
Y198596D03*
Y258596D03*
Y268596D03*
Y278596D03*
Y288596D03*
X497022Y138596D03*
Y228596D03*
Y318596D03*
X507022Y178596D03*
Y218596D03*
Y228596D03*
Y238596D03*
Y258596D03*
Y268596D03*
Y308596D03*
Y318596D03*
Y328596D03*
X517022Y78596D03*
Y98596D03*
X527022Y228596D03*
Y378596D03*
X537022Y18596D03*
Y158596D03*
Y178596D03*
Y378596D03*
X547022Y18596D03*
Y118596D03*
Y158596D03*
Y378596D03*
X557022Y118596D03*
Y168596D03*
X567022Y18596D03*
Y378596D03*
X577022Y18596D03*
Y118596D03*
Y168596D03*
Y378596D03*
D02*
D19*
X37022Y88596D03*
Y98596D03*
X77022Y88596D03*
Y98596D03*
X117022Y88596D03*
Y98596D03*
X157022Y88596D03*
Y98596D03*
X197022Y88596D03*
Y98596D03*
X237022Y88596D03*
Y98596D03*
X277022Y88596D03*
Y98596D03*
X317022Y88596D03*
Y98596D03*
X357022Y88596D03*
Y98596D03*
X397022Y88596D03*
Y98596D03*
X437022Y88596D03*
Y98596D03*
D02*
D70*
X27022Y218596D03*
Y308596D03*
X37022Y218596D03*
Y308596D03*
X77022Y218596D03*
Y308596D03*
X87022Y218596D03*
Y308596D03*
X127022Y218596D03*
Y308596D03*
X137022Y218596D03*
Y308596D03*
X177022Y218596D03*
Y308596D03*
X187022Y218596D03*
Y308596D03*
X227022Y218596D03*
Y308596D03*
X237022Y218596D03*
Y308596D03*
X277022Y218596D03*
Y308596D03*
X287022Y218596D03*
Y308596D03*
X327022Y218596D03*
Y308596D03*
X337022Y218596D03*
Y308596D03*
X377022Y218596D03*
Y308596D03*
X387022Y218596D03*
Y308596D03*
X427022Y218596D03*
Y308596D03*
X437022Y218596D03*
Y308596D03*
X477022Y218596D03*
Y308596D03*
X487022Y218596D03*
Y308596D03*
X517022Y138596D03*
X527022D03*
D02*
D29*
X17022Y168596D02*
Y118596D01*
X57022*
X17022Y168596D02*
X57022D01*
X27022Y178596D02*
Y188596D01*
X37022*
X27022Y218596D02*
Y238596D01*
Y308596D02*
Y328596D01*
X37022Y88596D02*
Y28596D01*
X187022*
Y18596*
X37022Y98596D02*
X57022D01*
Y78596*
X37022Y198596D02*
X27022D01*
Y218596*
X37022D02*
X57022D01*
X37022Y258596D02*
X17022D01*
Y168596*
X37022Y278596D02*
X17022D01*
Y378596*
X77022*
X37022Y278596D02*
X47022D01*
Y248596*
X67022*
Y188596*
X37022*
Y288596D02*
X27022D01*
Y308596*
X37022D02*
X57022D01*
X47022Y128596D02*
X67022D01*
X47022Y158596D02*
X27022D01*
X57022Y118596D02*
X97022D01*
X57022Y168596D02*
X107022D01*
X57022Y178596D02*
Y168596D01*
Y228596D02*
X47022D01*
X57022Y238596D02*
Y228596D01*
Y268596D02*
Y258596D01*
Y318596D02*
X47022D01*
X57022Y328596D02*
Y318596D01*
X67022Y158596D02*
X77022D01*
Y98596D02*
X97022D01*
Y78596*
X77022Y178596D02*
Y188596D01*
X87022*
X77022Y218596D02*
Y238596D01*
Y308596D02*
Y328596D01*
X87022Y188596D02*
X117022D01*
Y248596*
X97022*
Y278596*
X87022*
Y198596D02*
X77022D01*
Y218596*
X87022D02*
X107022D01*
X87022Y258596D02*
X57022D01*
X87022Y278596D02*
X67022D01*
Y368596*
X107022*
X87022Y288596D02*
X77022D01*
Y308596*
X87022D02*
X107022D01*
X97022Y118596D02*
X137022D01*
X97022Y228596D02*
X107022D01*
Y168596D02*
X157022D01*
X107022Y178596D02*
Y168596D01*
Y228596D02*
Y238596D01*
Y258596D02*
X137022D01*
X107022Y268596D02*
Y258596D01*
Y318596D02*
X97022D01*
X107022Y328596D02*
Y318596D01*
X117022Y88596D02*
Y48596D01*
X207022*
Y18596*
X117022Y98596D02*
X137022D01*
Y78596*
X117022Y128596D02*
X67022D01*
X117022Y158596D02*
X127022D01*
Y178596D02*
Y188596D01*
X137022*
X127022Y218596D02*
Y238596D01*
Y308596D02*
Y328596D01*
X137022Y118596D02*
X177022D01*
X137022Y198596D02*
X127022D01*
Y218596*
X137022D02*
X157022D01*
X137022Y278596D02*
X117022D01*
Y358596*
X137022*
Y278596D02*
X147022D01*
Y248596*
X167022*
Y188596*
X137022*
Y288596D02*
X127022D01*
Y308596*
X137022D02*
X157022D01*
X147022Y228596D02*
X157022D01*
X147022Y318596D02*
X157022D01*
Y98596D02*
X177022D01*
Y78596*
X157022Y168596D02*
X207022D01*
X157022Y178596D02*
Y168596D01*
Y228596D02*
Y238596D01*
Y258596D02*
X187022D01*
X157022Y268596D02*
Y258596D01*
Y328596D02*
Y318596D01*
X167022Y128596D02*
X117022D01*
X167022Y158596D02*
X177022D01*
Y118596D02*
X217022D01*
X177022Y178596D02*
Y188596D01*
X187022*
X177022Y218596D02*
Y238596D01*
Y308596D02*
Y328596D01*
Y378596D02*
X107022D01*
X187022Y188596D02*
X217022D01*
Y248596*
X197022*
Y278596*
X187022*
Y198596D02*
X177022D01*
Y218596*
X187022D02*
X207022D01*
X187022Y278596D02*
X167022D01*
Y348596*
X187022Y288596D02*
X177022D01*
Y308596*
X187022D02*
X207022D01*
X187022Y378596D02*
Y368596D01*
X137022*
X197022Y18596D02*
Y38596D01*
X77022*
Y88596*
X197022Y98596D02*
X217022D01*
Y78596*
X197022Y228596D02*
X207022D01*
X197022Y348596D02*
X207022D01*
Y378596*
X197022D02*
Y358596D01*
X167022*
X207022Y168596D02*
X257022D01*
X207022Y178596D02*
Y168596D01*
Y228596D02*
Y238596D01*
Y258596D02*
X237022D01*
X207022Y268596D02*
Y258596D01*
Y318596D02*
X197022D01*
X207022Y328596D02*
Y318596D01*
X217022Y18596D02*
Y58596D01*
X157022*
Y88596*
X217022Y118596D02*
X257022D01*
X217022Y128596D02*
X167022D01*
X217022Y158596D02*
X227022D01*
X217022Y378596D02*
Y368596D01*
X227022Y18596D02*
Y68596D01*
X197022*
Y88596*
X227022Y178596D02*
Y188596D01*
X237022*
X227022Y218596D02*
Y238596D01*
Y308596D02*
Y328596D01*
Y378596D02*
Y368596D01*
X237022Y88596D02*
Y18596D01*
Y98596D02*
X257022D01*
Y78596*
X237022Y198596D02*
X227022D01*
Y218596*
X237022D02*
X257022D01*
X237022Y278596D02*
X217022D01*
Y338596*
X237022Y278596D02*
X247022D01*
Y248596*
X267022*
Y188596*
X237022*
Y288596D02*
X227022D01*
Y308596*
X237022D02*
X257022D01*
X237022Y378596D02*
Y348596D01*
X257022*
X247022Y18596D02*
Y68596D01*
X277022*
Y88596*
X247022Y228596D02*
X257022D01*
X247022Y378596D02*
Y358596D01*
X287022*
X257022Y118596D02*
X297022D01*
X257022Y168596D02*
X307022D01*
X257022Y178596D02*
Y168596D01*
Y228596D02*
Y238596D01*
Y258596D02*
X287022D01*
X257022Y268596D02*
Y258596D01*
Y318596D02*
X247022D01*
X257022Y328596D02*
Y318596D01*
Y378596D02*
Y368596D01*
X317022*
X267022Y18596D02*
Y48596D01*
X357022*
Y88596*
X267022Y128596D02*
X217022D01*
X267022Y158596D02*
X277022D01*
X267022Y378596D02*
X347022D01*
X277022Y98596D02*
X297022D01*
Y78596*
X277022Y178596D02*
Y188596D01*
X287022*
X277022Y218596D02*
Y238596D01*
Y308596D02*
Y328596D01*
X287022Y18596D02*
Y28596D01*
X437022*
Y88596*
X287022Y188596D02*
X317022D01*
Y248596*
X297022*
Y278596*
X287022*
Y198596D02*
X277022D01*
Y218596*
X287022D02*
X307022D01*
X287022Y278596D02*
X267022D01*
Y338596*
X227022*
X287022Y288596D02*
X277022D01*
Y308596*
X287022D02*
X307022D01*
X297022Y118596D02*
X337022D01*
X297022Y228596D02*
X307022D01*
Y168596D02*
X357022D01*
X307022Y178596D02*
Y168596D01*
Y228596D02*
Y238596D01*
Y258596D02*
X337022D01*
X307022Y268596D02*
Y258596D01*
Y318596D02*
X297022D01*
X307022Y328596D02*
Y318596D01*
X317022Y88596D02*
Y58596D01*
X257022*
Y18596*
X317022Y98596D02*
X337022D01*
Y78596*
X317022Y128596D02*
X267022D01*
X317022Y158596D02*
X327022D01*
Y178596D02*
Y188596D01*
X337022*
X327022Y218596D02*
Y238596D01*
Y308596D02*
Y328596D01*
X337022Y118596D02*
X377022D01*
X337022Y198596D02*
X327022D01*
Y218596*
X337022D02*
X357022D01*
X337022Y278596D02*
X317022D01*
Y348596*
X287022*
X337022Y278596D02*
X347022D01*
Y248596*
X367022*
Y188596*
X337022*
Y288596D02*
X327022D01*
Y308596*
X337022D02*
X357022D01*
X347022Y228596D02*
X357022D01*
Y98596D02*
X377022D01*
Y78596*
X357022Y168596D02*
X407022D01*
X357022Y178596D02*
Y168596D01*
Y228596D02*
Y238596D01*
Y258596D02*
X387022D01*
X357022Y268596D02*
Y258596D01*
Y318596D02*
X347022D01*
X357022Y328596D02*
Y318596D01*
X367022Y128596D02*
X317022D01*
X367022Y158596D02*
X377022D01*
Y118596D02*
X417022D01*
X377022Y178596D02*
Y188596D01*
X387022*
X377022Y218596D02*
Y238596D01*
Y308596D02*
Y328596D01*
X387022Y188596D02*
X417022D01*
Y248596*
X397022*
Y278596*
X387022*
Y198596D02*
X377022D01*
Y218596*
X387022D02*
X407022D01*
X387022Y278596D02*
X367022D01*
Y358596*
X317022*
X387022Y288596D02*
X377022D01*
Y308596*
X387022D02*
X407022D01*
X397022Y88596D02*
Y38596D01*
X277022*
Y18596*
X397022Y98596D02*
X417022D01*
Y78596*
X397022Y228596D02*
X407022D01*
Y168596D02*
X457022D01*
X407022Y178596D02*
Y168596D01*
Y228596D02*
Y238596D01*
Y258596D02*
X437022D01*
X407022Y268596D02*
Y258596D01*
Y318596D02*
X397022D01*
X407022Y328596D02*
Y318596D01*
X417022Y118596D02*
X457022D01*
X417022Y128596D02*
X367022D01*
X417022Y158596D02*
X427022D01*
Y178596D02*
Y188596D01*
X437022*
X427022Y218596D02*
Y238596D01*
Y308596D02*
Y328596D01*
X437022Y98596D02*
X457022D01*
Y78596*
X437022Y128596D02*
X417022D01*
X437022Y158596D02*
Y128596D01*
Y198596D02*
X427022D01*
Y218596*
X437022D02*
X457022D01*
X437022Y278596D02*
X417022D01*
Y368596*
X347022*
X437022Y278596D02*
X447022D01*
Y248596*
X467022*
Y188596*
X437022*
Y288596D02*
X427022D01*
Y308596*
X437022D02*
X457022D01*
X447022Y228596D02*
X457022D01*
Y118596D02*
X547022D01*
X457022Y168596D02*
X507022D01*
X457022Y178596D02*
Y168596D01*
Y228596D02*
Y238596D01*
Y258596D02*
X487022D01*
X457022Y268596D02*
Y258596D01*
Y318596D02*
X447022D01*
X457022Y328596D02*
Y318596D01*
X467022Y128596D02*
X437022D01*
X467022Y158596D02*
X477022D01*
Y178596D02*
Y188596D01*
X487022*
X477022Y218596D02*
Y238596D01*
Y308596D02*
Y328596D01*
X487022Y138596D02*
Y128596D01*
X567022*
X487022Y188596D02*
X517022D01*
Y248596*
X497022*
Y278596*
X487022*
Y198596D02*
X477022D01*
Y218596*
X487022D02*
X507022D01*
X487022Y278596D02*
X467022D01*
Y378596*
X377022*
X487022Y288596D02*
X477022D01*
Y308596*
X487022D02*
X507022D01*
X497022Y138596D02*
X517022D01*
X497022Y228596D02*
X507022D01*
Y168596D02*
X557022D01*
X507022Y178596D02*
Y168596D01*
Y228596D02*
Y238596D01*
Y268596D02*
Y258596D01*
Y318596D02*
X497022D01*
X507022Y328596D02*
X527022D01*
Y378596*
X507022Y328596D02*
Y318596D01*
X517022Y78596D02*
X467022D01*
Y108596*
X517022Y78596D02*
X537022D01*
Y18596*
X517022Y138596D02*
Y158596D01*
X537022*
X527022Y138596D02*
X547022D01*
Y158596*
X537022Y178596D02*
Y218596D01*
X547022*
Y378596*
X537022D02*
Y228596D01*
X527022*
X547022Y18596D02*
Y98596D01*
X517022*
X547022Y118596D02*
X557022D01*
X567022Y128596D02*
Y18596D01*
Y378596D02*
Y128596D01*
X577022Y18596D02*
Y118596D01*
Y168596*
Y378596*
D02*
D73*
X487022Y38596D03*
X0Y0D02*
M02*
